<?xml version="1.0" encoding="utf-8"?>
<!-- Generator: Adobe Illustrator 23.0.0, SVG Export Plug-In . SVG Version: 6.00 Build 0)  -->
<svg version="1.1" xmlns="http://www.w3.org/2000/svg" xmlns:xlink="http://www.w3.org/1999/xlink" x="0px" y="0px"
	 viewBox="0 0 1920 1080" style="enable-background:new 0 0 1920 1080;" xml:space="preserve">
<style type="text/css">
	.st0{fill:url(#SVGID_1_);}
	.st1{clip-path:url(#SVGID_3_);}
	.st2{opacity:0.76;fill:#F2F2F2;}
	.st3{opacity:0.76;fill:#F2F2F2;stroke:url(#SVGID_4_);stroke-miterlimit:10;}
	.st4{opacity:0.76;}
	.st5{fill:#F2F2F2;}
	.st6{opacity:0.65;}
	.st7{opacity:0.76;fill:none;stroke:#F2F2F2;stroke-width:14;stroke-miterlimit:10;}
	.st8{opacity:0.65;fill:none;stroke:#F2F2F2;stroke-width:14;stroke-miterlimit:10;}
	.st9{opacity:0.65;fill:none;stroke:#F2F2F2;stroke-width:10;stroke-miterlimit:10;}
	.st10{opacity:0.65;fill:none;stroke:#F2F2F2;stroke-width:18;stroke-miterlimit:10;}
	.st11{opacity:0.31;}
	.st12{opacity:0.31;fill:none;stroke:#F2F2F2;stroke-width:10;stroke-miterlimit:10;}
</style>
<g id="Layer_2">
	<linearGradient id="SVGID_1_" gradientUnits="userSpaceOnUse" x1="960" y1="-9.094947e-13" x2="960" y2="1080">
		<stop  offset="0" style="stop-color:#FF1D25;stop-opacity:0.8"/>
		<stop  offset="1" style="stop-color:#FF0000"/>
	</linearGradient>
	<rect class="st0" width="1920" height="1080"/>
</g>
<g id="Layer_1">
	<g>
		<defs>
			<rect id="SVGID_2_" width="1919" height="1080"/>
		</defs>
		<clipPath id="SVGID_3_">
			<use xlink:href="#SVGID_2_"  style="overflow:visible;"/>
		</clipPath>
		<g class="st1">
			<path class="st2" d="M1774.31,1032.07L1774.31,1032.07c-4.01,0-7.27-3.25-7.27-7.27V774.1c0-4.01,3.25-7.27,7.27-7.27l0,0
				c4.01,0,7.27,3.25,7.27,7.27v250.71C1781.58,1028.82,1778.32,1032.07,1774.31,1032.07z"/>
			<path class="st2" d="M2087.07,899.53L2087.07,899.53c0,3.66-2.97,6.63-6.63,6.63h-546.19c-3.66,0-6.63-2.97-6.63-6.63l0,0
				c0-3.66,2.97-6.63,6.63-6.63h546.19C2084.1,892.9,2087.07,895.87,2087.07,899.53z"/>
			<path class="st2" d="M2235,775.54L2235,775.54c0,3.66-2.97,6.63-6.63,6.63h-546.19c-3.66,0-6.63-2.97-6.63-6.63l0,0
				c0-3.66,2.97-6.63,6.63-6.63h546.19C2232.03,768.91,2235,771.88,2235,775.54z"/>
			
				<linearGradient id="SVGID_4_" gradientUnits="userSpaceOnUse" x1="1299.1924" y1="827.75" x2="1299.1924" y2="1691.5541" gradientTransform="matrix(6.123234e-17 -1 1 6.123234e-17 536.25 2337.25)">
				<stop  offset="0" style="stop-color:#FF1D25;stop-opacity:0.8"/>
				<stop  offset="1" style="stop-color:#FF0000"/>
			</linearGradient>
			<path class="st3" d="M2227.3,1038.06L2227.3,1038.06c0,5.08-4.12,9.19-9.19,9.19h-844.42c-5.08,0-9.19-4.12-9.19-9.19l0,0
				c0-5.08,4.12-9.19,9.19-9.19h844.42C2223.19,1028.87,2227.3,1032.98,2227.3,1038.06z"/>
			<path class="st2" d="M1644.33,1034.21L1644.33,1034.21c-4.01,0-7.27-3.25-7.27-7.27V826.12c0-4.01,3.25-7.27,7.27-7.27l0,0
				c4.01,0,7.27,3.25,7.27,7.27v200.83C1651.6,1030.96,1648.35,1034.21,1644.33,1034.21z"/>
			<path class="st2" d="M1494.69,1032.07L1494.69,1032.07c-4.01,0-7.27-3.25-7.27-7.27V863.19c0-4.01,3.25-7.27,7.27-7.27l0,0
				c4.01,0,7.27,3.25,7.27,7.27v161.62C1501.96,1028.82,1498.7,1032.07,1494.69,1032.07z"/>
			<g class="st4">
				<path class="st5" d="M1679.48,873.65L1679.48,873.65c-2.78-2.66-2.87-7.07-0.21-9.85l54.71-57.07c2.66-2.78,7.07-2.87,9.85-0.21
					l0,0c2.78,2.66,2.87,7.07,0.21,9.85l-54.71,57.07C1686.67,876.22,1682.26,876.31,1679.48,873.65z"/>
				<path class="st5" d="M1745.22,872.26L1745.22,872.26c-2.66,2.78-7.07,2.87-9.85,0.21l-57.07-54.71
					c-2.78-2.66-2.87-7.07-0.21-9.85v0c2.66-2.78,7.07-2.87,9.85-0.21l57.07,54.71C1747.79,865.07,1747.89,869.48,1745.22,872.26z"
					/>
			</g>
			<g class="st4">
				<path class="st5" d="M1812.03,751.37L1812.03,751.37c-2.78-2.66-2.87-7.07-0.21-9.85l54.71-57.07c2.66-2.78,7.07-2.87,9.85-0.21
					l0,0c2.78,2.66,2.87,7.07,0.21,9.85l-54.71,57.07C1819.21,753.94,1814.8,754.03,1812.03,751.37z"/>
				<path class="st5" d="M1877.77,749.98L1877.77,749.98c-2.66,2.78-7.07,2.87-9.85,0.21l-57.07-54.71
					c-2.78-2.66-2.87-7.07-0.21-9.85l0,0c2.66-2.78,7.07-2.87,9.85-0.21l57.07,54.71C1880.33,742.79,1880.43,747.2,1877.77,749.98z"
					/>
			</g>
			<g class="st6">
				<path class="st5" d="M122.17,33.04L122.17,33.04c-1.33-2.43-0.44-5.47,1.99-6.8L174-1.06c2.43-1.33,5.47-0.44,6.8,1.99v0
					c1.33,2.43,0.44,5.47-1.99,6.8l-49.84,27.3C126.54,36.35,123.5,35.46,122.17,33.04z"/>
				<path class="st5" d="M167.54,46.29L167.54,46.29c-2.43,1.33-5.47,0.44-6.8-1.99l-27.3-49.84c-1.33-2.43-0.44-5.47,1.99-6.8l0,0
					c2.43-1.33,5.47-0.44,6.8,1.99l27.3,49.84C170.85,41.92,169.96,44.97,167.54,46.29z"/>
			</g>
			<g class="st6">
				<path class="st5" d="M305.17,134.04L305.17,134.04c-1.33-2.43-0.44-5.47,1.99-6.8L357,99.94c2.43-1.33,5.47-0.44,6.8,1.99v0
					c1.33,2.43,0.44,5.47-1.99,6.8l-49.84,27.3C309.54,137.35,306.5,136.46,305.17,134.04z"/>
				<path class="st5" d="M350.54,147.29L350.54,147.29c-2.43,1.33-5.47,0.44-6.8-1.99l-27.3-49.84c-1.33-2.43-0.44-5.47,1.99-6.8
					l0,0c2.43-1.33,5.47-0.44,6.8,1.99l27.3,49.84C353.85,142.92,352.96,145.97,350.54,147.29z"/>
			</g>
			<g class="st4">
				<path class="st5" d="M1812.03,1009.61L1812.03,1009.61c-2.78-2.66-2.87-7.07-0.21-9.85l54.71-57.07
					c2.66-2.78,7.07-2.87,9.85-0.21l0,0c2.78,2.66,2.87,7.07,0.21,9.85l-54.71,57.07
					C1819.21,1012.18,1814.8,1012.27,1812.03,1009.61z"/>
				<path class="st5" d="M1877.77,1008.22L1877.77,1008.22c-2.66,2.78-7.07,2.87-9.85,0.21l-57.07-54.71
					c-2.78-2.66-2.87-7.07-0.21-9.85l0,0c2.66-2.78,7.07-2.87,9.85-0.21l57.07,54.71
					C1880.33,1001.04,1880.43,1005.45,1877.77,1008.22z"/>
			</g>
			<circle class="st7" cx="1565.45" cy="976.49" r="37.2"/>
			<circle class="st7" cx="1709.11" cy="976.49" r="37.2"/>
			<circle class="st7" cx="1844.22" cy="835.4" r="37.2"/>
			<circle class="st7" cx="1565.88" cy="836.68" r="37.2"/>
			<circle class="st8" cx="123" cy="327" r="32"/>
			<circle class="st9" cx="203" cy="134" r="32"/>
			<circle class="st9" cx="290" cy="-15" r="32"/>
			<circle class="st10" cx="34.5" cy="181.5" r="77.5"/>
			<g class="st11">
				<path class="st5" d="M28.16,1062.36L28.16,1062.36c-2.75-0.25-4.78-2.69-4.53-5.44l5.16-56.59c0.25-2.75,2.69-4.78,5.44-4.53h0
					c2.75,0.25,4.78,2.69,4.53,5.44l-5.16,56.59C33.35,1060.58,30.92,1062.61,28.16,1062.36z"/>
				<path class="st5" d="M64.48,1032.11L64.48,1032.11c-0.25,2.75-2.69,4.78-5.44,4.53l-56.59-5.16c-2.75-0.25-4.78-2.69-4.53-5.44
					h0c0.25-2.75,2.69-4.78,5.44-4.53l56.59,5.16C62.7,1026.92,64.73,1029.36,64.48,1032.11z"/>
			</g>
			<g class="st11">
				<path class="st5" d="M214.09,966.86L214.09,966.86c-2.75-0.25-4.78-2.69-4.53-5.44l5.16-56.59c0.25-2.75,2.69-4.78,5.44-4.53
					l0,0c2.75,0.25,4.78,2.69,4.53,5.44l-5.16,56.59C219.28,965.08,216.85,967.11,214.09,966.86z"/>
				<path class="st5" d="M250.41,936.62L250.41,936.62c-0.25,2.75-2.69,4.78-5.44,4.53l-56.59-5.16c-2.75-0.25-4.78-2.69-4.53-5.44
					l0,0c0.25-2.75,2.69-4.78,5.44-4.53l56.59,5.16C248.63,931.43,250.66,933.86,250.41,936.62z"/>
			</g>
			<circle class="st12" cx="157.05" cy="1051.63" r="32"/>
			<circle class="st12" cx="81.95" cy="896.29" r="32"/>
		</g>
	</g>
</g>
</svg>
